# Blender 5.0.0
# www.blender.org
mtllib Cubeandcone.mtl
o Cone
v 0.000000 -1.000000 -1.000000
v 0.587785 -1.000000 -0.809017
v 0.951057 -1.000000 -0.309017
v 0.951057 -1.000000 0.309017
v 0.587785 -1.000000 0.809017
v 0.000000 -1.000000 1.000000
v -0.587785 -1.000000 0.809017
v -0.951057 -1.000000 0.309017
v -0.951057 -1.000000 -0.309017
v -0.587785 -1.000000 -0.809017
v 0.000000 1.000000 0.000000
vn 0.2791 0.4294 -0.8589
vn 0.7306 0.4294 -0.5308
vn 0.9031 0.4294 -0.0000
vn 0.7306 0.4294 0.5308
vn 0.2791 0.4294 0.8589
vn -0.2791 0.4294 0.8589
vn -0.7306 0.4294 0.5308
vn -0.9031 0.4294 -0.0000
vn -0.0000 -1.0000 -0.0000
vn -0.7306 0.4294 -0.5308
vn -0.2791 0.4294 -0.8589
vt 0.250000 0.490000
vt 0.250000 0.250000
vt 0.391068 0.444164
vt 0.478254 0.324164
vt 0.478254 0.175836
vt 0.391068 0.055836
vt 0.250000 0.010000
vt 0.108932 0.055836
vt 0.021746 0.175836
vt 0.021746 0.324164
vt 0.750000 0.490000
vt 0.891068 0.444164
vt 0.978254 0.324164
vt 0.978254 0.175836
vt 0.891068 0.055836
vt 0.750000 0.010000
vt 0.608932 0.055836
vt 0.521746 0.175836
vt 0.521746 0.324164
vt 0.608932 0.444164
vt 0.108932 0.444164
s 0
f 1/1/1 11/2/1 2/3/1
f 2/3/2 11/2/2 3/4/2
f 3/4/3 11/2/3 4/5/3
f 4/5/4 11/2/4 5/6/4
f 5/6/5 11/2/5 6/7/5
f 6/7/6 11/2/6 7/8/6
f 7/8/7 11/2/7 8/9/7
f 8/9/8 11/2/8 9/10/8
f 1/11/9 2/12/9 3/13/9 4/14/9 5/15/9 6/16/9 7/17/9 8/18/9 9/19/9 10/20/9
f 9/10/10 11/2/10 10/21/10
f 10/21/11 11/2/11 1/1/11
o Cube
v -1.000000 2.000000 1.000000
v -1.000000 4.000000 1.000000
v -1.000000 2.000000 -1.000000
v -1.000000 4.000000 -1.000000
v 1.000000 2.000000 1.000000
v 1.000000 4.000000 1.000000
v 1.000000 2.000000 -1.000000
v 1.000000 4.000000 -1.000000
vn -1.0000 -0.0000 -0.0000
vn -0.0000 -0.0000 -1.0000
vn 1.0000 -0.0000 -0.0000
vn -0.0000 -0.0000 1.0000
vn -0.0000 -1.0000 -0.0000
vn -0.0000 1.0000 -0.0000
vt 0.375000 0.000000
vt 0.625000 0.000000
vt 0.625000 0.250000
vt 0.375000 0.250000
vt 0.625000 0.500000
vt 0.375000 0.500000
vt 0.625000 0.750000
vt 0.375000 0.750000
vt 0.625000 1.000000
vt 0.375000 1.000000
vt 0.125000 0.500000
vt 0.125000 0.750000
vt 0.875000 0.500000
vt 0.875000 0.750000
s 0
f 12/22/12 13/23/12 15/24/12 14/25/12
f 14/25/13 15/24/13 19/26/13 18/27/13
f 18/27/14 19/26/14 17/28/14 16/29/14
f 16/29/15 17/28/15 13/30/15 12/31/15
f 14/32/16 18/27/16 16/29/16 12/33/16
f 19/26/17 15/34/17 13/35/17 17/28/17
