# Blender 5.0.0
# www.blender.org
mtllib pot.mtl
o Cube
v -0.985727 -1.063509 0.985727
v -0.986263 -0.985729 1.064047
v -1.064047 -0.985729 0.986263
v -0.985798 -1.053118 1.024639
v -1.024639 -1.053118 0.985798
v -1.023064 -1.043024 1.023064
v -1.025103 -0.985729 1.053654
v -0.985995 -1.024568 1.053387
v -1.023203 -1.022924 1.043304
v -1.053387 -1.024568 0.985995
v -1.053654 -0.985729 1.025103
v -1.043304 -1.022924 1.023203
v -0.999460 0.922220 1.077244
v -1.000000 1.000000 1.000000
v -1.077244 0.922220 0.999460
v -0.999729 0.961059 1.067122
v -1.038301 0.922220 1.066852
v -1.036915 0.959415 1.057016
v -1.038768 0.989609 0.999928
v -0.999928 0.989609 1.038768
v -1.037054 0.979515 1.037054
v -1.066852 0.922220 1.038301
v -1.067122 0.961059 0.999729
v -1.057016 0.959415 1.036915
v -0.985727 -1.063509 -0.985727
v -1.064047 -0.985729 -0.986263
v -0.986263 -0.985729 -1.064047
v -1.024639 -1.053118 -0.985798
v -0.985798 -1.053118 -1.024639
v -1.023064 -1.043024 -1.023064
v -1.053654 -0.985729 -1.025103
v -1.053387 -1.024568 -0.985995
v -1.043304 -1.022924 -1.023203
v -0.985995 -1.024568 -1.053387
v -1.025103 -0.985729 -1.053654
v -1.023203 -1.022924 -1.043304
v -1.000000 1.000000 -1.000000
v -0.999460 0.922220 -1.077244
v -1.077244 0.922220 -0.999460
v -0.999827 0.988457 -1.038101
v -1.038101 0.988457 -0.999827
v -1.036805 0.979802 -1.036805
v -1.037637 0.922036 -1.065701
v -0.999633 0.960400 -1.065964
v -1.036659 0.959132 -1.057308
v -1.065964 0.960400 -0.999633
v -1.065701 0.922036 -1.037637
v -1.057308 0.959132 -1.036659
v 0.985727 -1.063509 0.985727
v 1.064047 -0.985729 0.986263
v 0.986263 -0.985729 1.064047
v 1.024639 -1.053118 0.985798
v 0.985798 -1.053118 1.024639
v 1.023064 -1.043024 1.023064
v 1.053654 -0.985729 1.025103
v 1.053387 -1.024568 0.985995
v 1.043304 -1.022924 1.023203
v 0.985995 -1.024568 1.053387
v 1.025103 -0.985729 1.053654
v 1.023203 -1.022924 1.043304
v 1.000000 1.000000 1.000000
v 0.999460 0.922220 1.077244
v 1.077244 0.922220 0.999460
v 0.999827 0.988457 1.038101
v 1.038101 0.988457 0.999827
v 1.036805 0.979802 1.036805
v 1.037637 0.922036 1.065701
v 0.999633 0.960400 1.065964
v 1.036659 0.959132 1.057308
v 1.065964 0.960400 0.999633
v 1.065701 0.922036 1.037637
v 1.057308 0.959132 1.036659
v 0.985727 -1.063509 -0.985727
v 0.986263 -0.985729 -1.064047
v 1.064047 -0.985729 -0.986263
v 0.985798 -1.053118 -1.024639
v 1.024639 -1.053118 -0.985798
v 1.023064 -1.043024 -1.023064
v 1.025103 -0.985729 -1.053654
v 0.985995 -1.024568 -1.053387
v 1.023203 -1.022924 -1.043304
v 1.053387 -1.024568 -0.985995
v 1.053654 -0.985729 -1.025103
v 1.043304 -1.022924 -1.023203
v 1.000000 1.000000 -1.000000
v 1.077244 0.922220 -0.999460
v 0.999460 0.922220 -1.077244
v 1.038101 0.988457 -0.999827
v 0.999827 0.988457 -1.038101
v 1.036805 0.979802 -1.036805
v 1.065701 0.922036 -1.037637
v 1.065964 0.960400 -0.999633
v 1.057308 0.959132 -1.036659
v 0.999633 0.960400 -1.065964
v 1.037637 0.922036 -1.065701
v 1.036659 0.959132 -1.057308
v -0.858710 -0.936491 0.858710
v -0.935918 -0.858712 0.858134
v -0.858134 -0.858712 0.935918
v -0.897473 -0.926100 0.858633
v -0.858632 -0.926100 0.897473
v -0.895755 -0.916007 0.895755
v -0.925526 -0.858712 0.896975
v -0.925813 -0.897551 0.858421
v -0.915707 -0.895907 0.895606
v -0.858421 -0.897551 0.925814
v -0.896975 -0.858712 0.925526
v -0.895606 -0.895907 0.915707
v -0.845008 0.922220 0.922792
v -0.922792 0.922220 0.845008
v -1.000000 1.000000 1.000000
v -0.883184 0.922417 0.911249
v -0.894265 0.960229 0.933940
v -0.909560 0.959125 0.922458
v -0.933940 0.960229 0.894265
v -0.911249 0.922417 0.883184
v -0.922458 0.959125 0.909560
v -0.950743 0.988571 0.962074
v -0.962075 0.988571 0.950743
v -0.935456 0.979959 0.935456
v -0.858710 -0.936491 -0.858710
v -0.858134 -0.858712 -0.935918
v -0.935918 -0.858712 -0.858134
v -0.858633 -0.926100 -0.897473
v -0.897473 -0.926100 -0.858632
v -0.895755 -0.916007 -0.895755
v -0.896975 -0.858712 -0.925526
v -0.858421 -0.897551 -0.925813
v -0.895606 -0.895907 -0.915707
v -0.925814 -0.897551 -0.858421
v -0.925526 -0.858712 -0.896975
v -0.915707 -0.895907 -0.895606
v -0.922792 0.922220 -0.845008
v -0.845008 0.922220 -0.922792
v -1.000000 1.000000 -1.000000
v -0.911249 0.922417 -0.883184
v -0.933940 0.960229 -0.894265
v -0.922458 0.959126 -0.909560
v -0.894265 0.960229 -0.933940
v -0.883184 0.922417 -0.911249
v -0.909560 0.959125 -0.922458
v -0.962074 0.988571 -0.950743
v -0.950743 0.988571 -0.962075
v -0.935456 0.979959 -0.935456
v 0.858710 -0.936491 0.858710
v 0.858134 -0.858712 0.935918
v 0.935918 -0.858712 0.858134
v 0.858633 -0.926100 0.897473
v 0.897473 -0.926100 0.858632
v 0.895755 -0.916007 0.895755
v 0.896975 -0.858712 0.925526
v 0.858421 -0.897551 0.925813
v 0.895606 -0.895907 0.915707
v 0.925814 -0.897551 0.858421
v 0.925526 -0.858712 0.896975
v 0.915707 -0.895907 0.895606
v 0.922792 0.922220 0.845008
v 0.845008 0.922220 0.922792
v 1.000000 1.000000 1.000000
v 0.911249 0.922417 0.883184
v 0.933940 0.960229 0.894265
v 0.922458 0.959126 0.909560
v 0.894265 0.960229 0.933940
v 0.883184 0.922417 0.911249
v 0.909560 0.959125 0.922458
v 0.962074 0.988571 0.950743
v 0.950743 0.988571 0.962075
v 0.935456 0.979959 0.935456
v 0.858710 -0.936491 -0.858710
v 0.935918 -0.858712 -0.858134
v 0.858134 -0.858712 -0.935918
v 0.897473 -0.926100 -0.858633
v 0.858632 -0.926100 -0.897473
v 0.895755 -0.916007 -0.895755
v 0.925526 -0.858712 -0.896975
v 0.925813 -0.897551 -0.858421
v 0.915707 -0.895907 -0.895606
v 0.858421 -0.897551 -0.925814
v 0.896975 -0.858712 -0.925526
v 0.895606 -0.895907 -0.915707
v 0.845008 0.922220 -0.922792
v 0.922792 0.922220 -0.845008
v 1.000000 1.000000 -1.000000
v 0.883184 0.922417 -0.911249
v 0.894265 0.960229 -0.933940
v 0.909560 0.959126 -0.922458
v 0.933940 0.960229 -0.894265
v 0.911249 0.922417 -0.883184
v 0.922458 0.959125 -0.909560
v 0.950743 0.988571 -0.962074
v 0.962075 0.988571 -0.950743
v 0.935456 0.979959 -0.935456
vn -0.1292 -0.9832 0.1292
vn -0.1210 -0.8635 0.4895
vn -0.4452 -0.7769 0.4452
vn -0.4895 -0.8635 0.1210
vn -0.1211 -0.4964 0.8596
vn -0.4458 -0.4536 0.7717
vn -0.1294 -0.1369 0.9821
vn -0.4910 -0.1304 0.8613
vn -0.8613 -0.1304 0.4910
vn -0.7717 -0.4536 0.4458
vn -0.9821 -0.1369 0.1294
vn -0.8596 -0.4964 0.1211
vn -0.1297 0.1263 0.9835
vn -0.1217 0.4903 0.8630
vn -0.4489 0.4411 0.7771
vn -0.4921 0.1127 0.8632
vn -0.1218 0.8591 0.4972
vn -0.4495 0.7720 0.4495
vn -0.1069 0.9885 0.1069
vn -0.4972 0.8591 0.1218
vn -0.8630 0.4903 0.1217
vn -0.7771 0.4411 0.4489
vn -0.9835 0.1263 0.1297
vn -0.8632 0.1127 0.4921
vn -0.1292 -0.9832 -0.1292
vn -0.4895 -0.8635 -0.1210
vn -0.4452 -0.7769 -0.4452
vn -0.1210 -0.8635 -0.4895
vn -0.8596 -0.4964 -0.1211
vn -0.7717 -0.4536 -0.4458
vn -0.9815 -0.1370 -0.1335
vn -0.8593 -0.1301 -0.4946
vn -0.4946 -0.1301 -0.8593
vn -0.4458 -0.4536 -0.7717
vn -0.1335 -0.1370 -0.9815
vn -0.1211 -0.4964 -0.8596
vn -0.1065 0.9882 -0.1097
vn -0.1140 0.8576 -0.5015
vn -0.4432 0.7792 -0.4432
vn -0.4979 0.8597 -0.1144
vn -0.1141 0.4946 -0.8616
vn -0.4426 0.4342 -0.7846
vn -0.1333 0.1299 -0.9825
vn -0.4964 0.1046 -0.8618
vn -0.8618 0.1046 -0.4964
vn -0.7846 0.4342 -0.4426
vn -0.9831 0.1258 -0.1333
vn -0.8636 0.4910 -0.1144
vn 0.1292 -0.9832 0.1292
vn 0.4895 -0.8635 0.1210
vn 0.4452 -0.7769 0.4452
vn 0.1210 -0.8635 0.4895
vn 0.8596 -0.4964 0.1211
vn 0.7717 -0.4536 0.4458
vn 0.9815 -0.1370 0.1335
vn 0.8593 -0.1301 0.4946
vn 0.4946 -0.1301 0.8593
vn 0.4458 -0.4536 0.7717
vn 0.1335 -0.1370 0.9815
vn 0.1211 -0.4964 0.8596
vn 0.1097 0.9882 0.1064
vn 0.1144 0.8597 0.4979
vn 0.4432 0.7792 0.4432
vn 0.5015 0.8576 0.1140
vn 0.1144 0.4910 0.8636
vn 0.4426 0.4342 0.7846
vn 0.1333 0.1258 0.9831
vn 0.4964 0.1046 0.8618
vn 0.8618 0.1046 0.4964
vn 0.7846 0.4342 0.4426
vn 0.9825 0.1299 0.1333
vn 0.8616 0.4946 0.1141
vn 0.1292 -0.9832 -0.1292
vn 0.1210 -0.8635 -0.4895
vn 0.4452 -0.7769 -0.4452
vn 0.4895 -0.8635 -0.1210
vn 0.1211 -0.4964 -0.8596
vn 0.4458 -0.4536 -0.7717
vn 0.1335 -0.1370 -0.9815
vn 0.4946 -0.1301 -0.8593
vn 0.8593 -0.1301 -0.4946
vn 0.7717 -0.4536 -0.4458
vn 0.9815 -0.1370 -0.1335
vn 0.8596 -0.4964 -0.1211
vn 0.1097 0.9879 -0.1097
vn 0.5015 0.8576 -0.1140
vn 0.4432 0.7792 -0.4432
vn 0.1140 0.8576 -0.5015
vn 0.8616 0.4946 -0.1141
vn 0.7846 0.4342 -0.4426
vn 0.9825 0.1299 -0.1333
vn 0.8618 0.1046 -0.4964
vn 0.4964 0.1046 -0.8618
vn 0.4426 0.4342 -0.7846
vn 0.1333 0.1299 -0.9825
vn 0.1141 0.4946 -0.8616
vn 0.1300 0.9829 -0.1300
vn 0.4937 0.8610 -0.1222
vn 0.4496 0.7718 -0.4496
vn 0.1222 0.8610 -0.4937
vn 0.8652 0.4864 -0.1221
vn 0.7773 0.4407 -0.4490
vn 0.9835 0.1217 -0.1338
vn 0.8613 0.1117 -0.4957
vn 0.4957 0.1117 -0.8613
vn 0.4490 0.4407 -0.7773
vn 0.1338 0.1217 -0.9835
vn 0.1221 0.4864 -0.8652
vn 0.1107 0.1789 -0.9776
vn 0.4252 0.5742 -0.6996
vn 0.4586 0.7380 -0.4950
vn 0.1295 0.6067 -0.7843
vn 0.6996 0.5742 -0.4252
vn 0.4950 0.7380 -0.4586
vn 0.9776 0.1789 -0.1107
vn 0.7843 0.6067 -0.1295
vn 0.2250 0.8820 -0.4142
vn 0.2709 0.9569 -0.1045
vn 0.3183 0.8929 -0.3183
vn 0.0498 0.9975 -0.0498
vn 0.1045 0.9569 -0.2709
vn 0.4142 0.8820 -0.2250
vn 0.1300 0.9829 0.1300
vn 0.1222 0.8610 0.4937
vn 0.4496 0.7718 0.4496
vn 0.4937 0.8610 0.1222
vn 0.1221 0.4864 0.8652
vn 0.4490 0.4407 0.7773
vn 0.1338 0.1217 0.9835
vn 0.4957 0.1117 0.8613
vn 0.8613 0.1117 0.4957
vn 0.7773 0.4407 0.4490
vn 0.9835 0.1217 0.1338
vn 0.8652 0.4864 0.1221
vn 0.9776 0.1789 0.1107
vn 0.6996 0.5742 0.4252
vn 0.4950 0.7380 0.4586
vn 0.7843 0.6067 0.1294
vn 0.4252 0.5742 0.6996
vn 0.4586 0.7380 0.4950
vn 0.1107 0.1789 0.9776
vn 0.1295 0.6067 0.7843
vn 0.4142 0.8820 0.2250
vn 0.1045 0.9569 0.2709
vn 0.3183 0.8929 0.3183
vn 0.0498 0.9975 0.0498
vn 0.2709 0.9569 0.1045
vn 0.2250 0.8820 0.4142
vn -0.1300 0.9829 -0.1300
vn -0.1222 0.8610 -0.4937
vn -0.4496 0.7718 -0.4496
vn -0.4937 0.8610 -0.1222
vn -0.1221 0.4864 -0.8652
vn -0.4490 0.4407 -0.7773
vn -0.1338 0.1217 -0.9835
vn -0.4957 0.1117 -0.8613
vn -0.8613 0.1117 -0.4957
vn -0.7773 0.4407 -0.4490
vn -0.9835 0.1217 -0.1338
vn -0.8652 0.4864 -0.1221
vn -0.9776 0.1789 -0.1107
vn -0.6996 0.5742 -0.4252
vn -0.4950 0.7380 -0.4586
vn -0.7843 0.6067 -0.1294
vn -0.4252 0.5742 -0.6996
vn -0.4586 0.7380 -0.4950
vn -0.1107 0.1789 -0.9776
vn -0.1295 0.6067 -0.7843
vn -0.4142 0.8820 -0.2250
vn -0.1045 0.9569 -0.2709
vn -0.3183 0.8929 -0.3183
vn -0.0498 0.9975 -0.0498
vn -0.2709 0.9569 -0.1045
vn -0.2250 0.8820 -0.4142
vn -0.1300 0.9829 0.1300
vn -0.4937 0.8610 0.1222
vn -0.4496 0.7718 0.4496
vn -0.1222 0.8610 0.4937
vn -0.8652 0.4864 0.1221
vn -0.7773 0.4407 0.4490
vn -0.9835 0.1217 0.1338
vn -0.8613 0.1117 0.4957
vn -0.4957 0.1117 0.8613
vn -0.4490 0.4407 0.7773
vn -0.1338 0.1217 0.9835
vn -0.1221 0.4864 0.8652
vn -0.1107 0.1789 0.9776
vn -0.4252 0.5742 0.6996
vn -0.4586 0.7380 0.4950
vn -0.1295 0.6067 0.7843
vn -0.6996 0.5742 0.4252
vn -0.4950 0.7380 0.4586
vn -0.9776 0.1789 0.1107
vn -0.7843 0.6067 0.1294
vn -0.2250 0.8820 0.4142
vn -0.2709 0.9569 0.1045
vn -0.3183 0.8929 0.3183
vn -0.0498 0.9975 0.0498
vn -0.1045 0.9569 0.2709
vn -0.4142 0.8820 0.2250
vn 0.8620 -0.0106 -0.5067
vn 0.5067 -0.0106 -0.8620
vn 0.8620 -0.0106 0.5067
vn 0.5067 -0.0106 0.8620
vn -0.5067 -0.0106 0.8620
vn -0.8620 -0.0106 0.5067
vn -0.8620 -0.0106 -0.5067
vn -0.5067 -0.0106 -0.8620
vt 0.134142 0.740858
vt 0.134134 0.745431
vt 0.129754 0.745246
vt 0.129569 0.740866
vt 0.134111 0.750000
vt 0.129737 0.750000
vt 0.384423 0.990881
vt 0.384382 1.000000
vt 0.375000 0.995263
vt 0.375000 0.990889
vt 0.384382 0.000000
vt 0.384414 0.004562
vt 0.375000 0.004737
vt 0.374966 0.000000
vt 0.384423 0.009119
vt 0.375000 0.009111
vt 0.125000 0.740889
vt 0.125000 0.745263
vt 0.615577 0.990956
vt 0.620273 0.990964
vt 0.620032 1.000000
vt 0.615535 1.000000
vt 0.625000 0.662068
vt 0.625000 0.000000
vt 0.625000 0.004587
vt 0.624161 0.001571
vt 0.625000 -0.004623
vt 0.620274 0.009036
vt 0.620066 0.004718
vt 0.615577 0.009044
vt 0.615568 0.004531
vt 0.615535 0.000000
vt 0.620032 0.000000
vt 0.134142 0.509142
vt 0.129569 0.509134
vt 0.129754 0.504754
vt 0.134134 0.504569
vt 0.125000 0.509111
vt 0.125000 0.504737
vt 0.384423 0.240881
vt 0.384414 0.245438
vt 0.375000 0.245263
vt 0.375000 0.240889
vt 0.384414 0.254562
vt 0.375000 0.254737
vt 0.384423 0.259119
vt 0.375000 0.259111
vt 0.134111 0.500000
vt 0.129737 0.500000
vt 0.625000 0.250000
vt 0.625000 0.254521
vt 0.625000 0.245462
vt 0.620193 0.259046
vt 0.620032 0.254748
vt 0.615577 0.259044
vt 0.615545 0.254608
vt 0.615545 0.245392
vt 0.620032 0.245252
vt 0.615577 0.240956
vt 0.620193 0.240954
vt 0.365858 0.740858
vt 0.370431 0.740866
vt 0.370246 0.745246
vt 0.365866 0.745431
vt 0.379709 0.740873
vt 0.378081 0.745247
vt 0.384423 0.740881
vt 0.384414 0.745438
vt 0.384414 0.754562
vt 0.372631 0.752369
vt 0.384423 0.759119
vt 0.370445 0.754555
vt 0.625000 0.750000
vt 0.625000 0.754521
vt 0.625000 0.745462
vt 0.620193 0.759046
vt 0.620032 0.754748
vt 0.615577 0.759044
vt 0.615545 0.754608
vt 0.615545 0.745392
vt 0.620032 0.745252
vt 0.615577 0.740956
vt 0.620193 0.740954
vt 0.365858 0.509142
vt 0.365866 0.504569
vt 0.370246 0.504754
vt 0.370431 0.509134
vt 0.370445 0.495445
vt 0.372631 0.497631
vt 0.384423 0.490881
vt 0.384414 0.495438
vt 0.384414 0.504562
vt 0.378081 0.504753
vt 0.384423 0.509119
vt 0.379709 0.509127
vt 0.625000 0.500000
vt 0.625000 0.504521
vt 0.625000 0.495462
vt 0.620193 0.509046
vt 0.620032 0.504748
vt 0.615577 0.509044
vt 0.615545 0.504608
vt 0.615545 0.495392
vt 0.620032 0.495252
vt 0.615577 0.490956
vt 0.620193 0.490954
vt 0.135382 0.739618
vt 0.130208 0.739608
vt 0.130437 0.744563
vt 0.135392 0.744792
vt 0.125000 0.739579
vt 0.125000 0.744543
vt 0.385041 0.010411
vt 0.385051 0.005216
vt 0.375000 0.005457
vt 0.375000 0.010421
vt 0.385088 0.000000
vt 0.375039 0.000000
vt 0.385041 0.989589
vt 0.375000 0.989579
vt 0.375000 0.994543
vt 0.385088 1.000000
vt 0.135421 0.750000
vt 0.130457 0.750000
vt 0.614959 0.989487
vt 0.615033 1.000000
vt 0.619736 1.000000
vt 0.619855 0.996183
vt 0.615033 0.000000
vt 0.614995 0.005349
vt 0.619723 0.001750
vt 0.619736 0.000000
vt 0.614959 0.010513
vt 0.619855 0.003817
vt 0.625000 0.334683
vt 0.623700 0.499118
vt 0.625000 1.000000
vt 0.625000 0.998648
vt 0.625000 1.001344
vt 0.135382 0.510382
vt 0.135392 0.505208
vt 0.130437 0.505437
vt 0.130208 0.510392
vt 0.135421 0.500000
vt 0.130457 0.500000
vt 0.385041 0.260411
vt 0.385051 0.255216
vt 0.375000 0.255457
vt 0.375000 0.260421
vt 0.385051 0.244784
vt 0.375000 0.244543
vt 0.385041 0.239589
vt 0.375000 0.239579
vt 0.125000 0.510421
vt 0.125000 0.505457
vt 0.614959 0.239487
vt 0.614995 0.244651
vt 0.619723 0.248250
vt 0.619855 0.246183
vt 0.614995 0.255349
vt 0.619723 0.251750
vt 0.614959 0.260513
vt 0.619855 0.253817
vt 0.625000 0.251348
vt 0.625000 0.248648
vt 0.364618 0.739618
vt 0.364608 0.744792
vt 0.369563 0.744563
vt 0.369792 0.739608
vt 0.369790 0.755210
vt 0.372271 0.752729
vt 0.385041 0.760411
vt 0.385051 0.755216
vt 0.385051 0.744784
vt 0.378251 0.744562
vt 0.385041 0.739589
vt 0.380037 0.739599
vt 0.614959 0.739487
vt 0.614995 0.744651
vt 0.619723 0.748250
vt 0.619855 0.746183
vt 0.614995 0.755349
vt 0.619723 0.751750
vt 0.614959 0.760513
vt 0.619855 0.753817
vt 0.625000 0.751348
vt 0.625000 0.748648
vt 0.364618 0.510382
vt 0.369792 0.510392
vt 0.369563 0.505437
vt 0.364608 0.505208
vt 0.380037 0.510401
vt 0.378251 0.505438
vt 0.385041 0.510411
vt 0.385051 0.505216
vt 0.385051 0.494784
vt 0.372271 0.497271
vt 0.385041 0.489589
vt 0.369790 0.494790
vt 0.614959 0.489487
vt 0.614995 0.494651
vt 0.619723 0.498250
vt 0.619855 0.496183
vt 0.614995 0.505349
vt 0.619723 0.501750
vt 0.614959 0.510513
vt 0.619855 0.503817
vt 0.625000 0.501348
vt 0.625000 0.498648
s 1
f 1/1/1 4/2/2 6/3/3 5/4/4
f 4/2/2 8/5/5 9/6/6 6/3/3
f 2/7/7 7/8/8 9/9/6 8/10/5
f 7/11/8 11/12/9 12/13/10 9/14/6
f 3/15/11 10/16/12 12/13/10 11/12/9
f 10/17/12 5/4/4 6/3/3 12/18/10
f 6/3/3 9/6/6 12/18/10
f 13/19/13 16/20/14 18/21/15 17/22/16
f 16/20/14 20/23/17 21/24/18 18/21/15
f 14/24/19 19/25/20 21/26/18 20/27/17
f 19/25/20 23/28/21 24/29/22 21/26/18
f 15/30/23 22/31/24 24/29/22 23/28/21
f 22/31/24 17/32/16 18/33/15 24/29/22
f 18/33/15 21/26/18 24/29/22
f 25/34/25 28/35/26 30/36/27 29/37/28
f 28/35/26 32/38/29 33/39/30 30/36/27
f 26/40/31 31/41/32 33/42/30 32/43/29
f 31/41/32 35/44/33 36/45/34 33/42/30
f 27/46/35 34/47/36 36/45/34 35/44/33
f 34/48/36 29/37/28 30/36/27 36/49/34
f 30/36/27 33/39/30 36/49/34
f 37/50/37 40/51/38 42/50/39 41/52/40
f 40/51/38 44/53/41 45/54/42 42/50/39
f 38/55/43 43/56/44 45/54/42 44/53/41
f 43/56/44 47/57/45 48/58/46 45/54/42
f 39/59/47 46/60/48 48/58/46 47/57/45
f 46/60/48 41/52/40 42/50/39 48/58/46
f 42/50/39 45/54/42 48/58/46
f 49/61/49 52/62/50 54/63/51 53/64/52
f 52/62/50 56/65/53 57/66/54 54/63/51
f 50/67/55 55/68/56 57/66/54 56/65/53
f 55/68/56 59/69/57 60/70/58 57/66/54
f 51/71/59 58/72/60 60/70/58 59/69/57
f 58/72/60 53/64/52 54/63/51 60/70/58
f 54/63/51 57/66/54 60/70/58
f 61/73/61 64/74/62 66/73/63 65/75/64
f 64/74/62 68/76/65 69/77/66 66/73/63
f 62/78/67 67/79/68 69/77/66 68/76/65
f 67/79/68 71/80/69 72/81/70 69/77/66
f 63/82/71 70/83/72 72/81/70 71/80/69
f 70/83/72 65/75/64 66/73/63 72/81/70
f 66/73/63 69/77/66 72/81/70
f 73/84/73 76/85/74 78/86/75 77/87/76
f 76/85/74 80/88/77 81/89/78 78/86/75
f 74/90/79 79/91/80 81/89/78 80/88/77
f 79/91/80 83/92/81 84/93/82 81/89/78
f 75/94/83 82/95/84 84/93/82 83/92/81
f 82/95/84 77/87/76 78/86/75 84/93/82
f 78/86/75 81/89/78 84/93/82
f 85/96/85 88/97/86 90/96/87 89/98/88
f 88/97/86 92/99/89 93/100/90 90/96/87
f 86/101/91 91/102/92 93/100/90 92/99/89
f 91/102/92 95/103/93 96/104/94 93/100/90
f 87/105/95 94/106/96 96/104/94 95/103/93
f 94/106/96 89/98/88 90/96/87 96/104/94
f 90/96/87 93/100/90 96/104/94
f 97/107/97 100/108/98 102/109/99 101/110/100
f 100/108/98 104/111/101 105/112/102 102/109/99
f 98/113/103 103/114/104 105/115/102 104/116/101
f 103/114/104 107/117/105 108/118/106 105/115/102
f 99/119/107 106/120/108 108/121/106 107/122/105
f 106/123/108 101/110/100 102/109/99 108/124/106
f 102/109/99 105/112/102 108/124/106
f 109/125/109 112/126/110 114/127/111 113/128/112
f 112/129/110 116/130/113 117/131/114 114/132/111
f 110/133/115 115/134/116 117/131/114 116/130/113
f 115/134/117 119/135/118 120/136/119 117/131/114
f 111/137/120 118/138/121 120/137/119 119/139/118
f 118/138/121 113/128/122 114/127/111 120/137/119
f 114/132/111 117/131/114 120/136/119
f 121/140/123 124/141/124 126/142/125 125/143/126
f 124/141/124 128/144/127 129/145/128 126/142/125
f 122/146/129 127/147/130 129/148/128 128/149/127
f 127/147/130 131/150/131 132/151/132 129/148/128
f 123/152/133 130/153/134 132/151/132 131/150/131
f 130/154/134 125/143/126 126/142/125 132/155/132
f 126/142/125 129/145/128 132/155/132
f 133/156/135 136/157/136 138/158/137 137/159/138
f 136/157/136 140/160/139 141/161/140 138/158/137
f 134/162/141 139/163/142 141/161/140 140/160/139
f 139/163/143 143/164/144 144/50/145 141/161/140
f 135/50/146 142/165/147 144/50/145 143/164/144
f 142/165/147 137/159/148 138/158/137 144/50/145
f 138/158/137 141/161/140 144/50/145
f 145/166/149 148/167/150 150/168/151 149/169/152
f 148/167/150 152/170/153 153/171/154 150/168/151
f 146/172/155 151/173/156 153/171/154 152/170/153
f 151/173/156 155/174/157 156/175/158 153/171/154
f 147/176/159 154/177/160 156/175/158 155/174/157
f 154/177/160 149/169/152 150/168/151 156/175/158
f 150/168/151 153/171/154 156/175/158
f 157/178/161 160/179/162 162/180/163 161/181/164
f 160/179/162 164/182/165 165/183/166 162/180/163
f 158/184/167 163/185/168 165/183/166 164/182/165
f 163/185/169 167/186/170 168/73/171 165/183/166
f 159/73/172 166/187/173 168/73/171 167/186/170
f 166/187/173 161/181/174 162/180/163 168/73/171
f 162/180/163 165/183/166 168/73/171
f 169/188/175 172/189/176 174/190/177 173/191/178
f 172/189/176 176/192/179 177/193/180 174/190/177
f 170/194/181 175/195/182 177/193/180 176/192/179
f 175/195/182 179/196/183 180/197/184 177/193/180
f 171/198/185 178/199/186 180/197/184 179/196/183
f 178/199/186 173/191/178 174/190/177 180/197/184
f 174/190/177 177/193/180 180/197/184
f 181/200/187 184/201/188 186/202/189 185/203/190
f 184/201/188 188/204/191 189/205/192 186/202/189
f 182/206/193 187/207/194 189/205/192 188/204/191
f 187/207/195 191/208/196 192/96/197 189/205/192
f 183/96/198 190/209/199 192/96/197 191/208/196
f 190/209/199 185/203/200 186/202/189 192/96/197
f 186/202/189 189/205/192 192/96/197
f 25/34/25 1/1/1 5/4/4 28/35/26
f 28/35/26 5/4/4 10/17/12 32/38/29
f 32/43/29 10/16/12 3/15/11 26/40/31
f 2/7/7 13/19/13 17/22/16 7/8/8
f 7/11/8 17/32/16 22/31/24 11/12/9
f 11/12/9 22/31/24 15/30/23 3/15/11
f 14/24/19 37/50/37 41/52/40 19/25/20
f 19/25/20 41/52/40 46/60/48 23/28/21
f 23/28/21 46/60/48 39/59/47 15/30/23
f 38/55/43 27/46/35 35/44/33 43/56/44
f 43/56/44 35/44/33 31/41/32 47/57/45
f 47/57/45 31/41/32 26/40/31 39/59/47
f 73/84/73 25/34/25 29/37/28 76/85/74
f 76/85/74 29/37/28 34/48/36 80/88/77
f 80/88/77 34/47/36 27/46/35 74/90/79
f 37/50/37 85/96/85 89/98/88 40/51/38
f 40/51/38 89/98/88 94/106/96 44/53/41
f 44/53/41 94/106/96 87/105/95 38/55/43
f 86/101/91 75/94/83 83/92/81 91/102/92
f 91/102/92 83/92/81 79/91/80 95/103/93
f 95/103/93 79/91/80 74/90/79 87/105/95
f 49/61/49 73/84/73 77/87/76 52/62/50
f 52/62/50 77/87/76 82/95/84 56/65/53
f 56/65/53 82/95/84 75/94/83 50/67/55
f 85/96/85 61/73/61 65/75/64 88/97/86
f 88/97/86 65/75/64 70/83/72 92/99/89
f 92/99/89 70/83/72 63/82/71 86/101/91
f 62/78/67 51/71/59 59/69/57 67/79/68
f 67/79/68 59/69/57 55/68/56 71/80/69
f 71/80/69 55/68/56 50/67/55 63/82/71
f 1/1/1 49/61/49 53/64/52 4/2/2
f 4/2/2 53/64/52 58/72/60 8/5/5
f 8/10/5 58/72/60 51/71/59 2/7/7
f 61/73/61 14/137/19 20/23/17 64/74/62
f 64/74/62 20/23/17 16/20/14 68/76/65
f 68/76/65 16/20/14 13/19/13 62/78/67
f 123/152/133 98/113/103 104/116/101 130/153/134
f 130/154/134 104/111/101 100/108/98 125/143/126
f 125/143/126 100/108/98 97/107/97 121/140/123
f 98/113/103 110/133/115 116/130/201 103/114/104
f 103/114/104 116/130/201 112/129/202 107/117/105
f 107/122/105 112/126/202 109/125/109 99/119/107
f 110/133/115 133/156/135 137/159/138 115/134/116
f 115/134/116 137/159/138 142/165/147 119/135/118
f 119/135/118 142/165/147 135/50/146 111/24/120
f 133/156/135 123/152/133 131/150/131 136/157/203
f 136/157/203 131/150/131 127/147/130 140/160/204
f 140/160/204 127/147/130 122/146/129 134/162/141
f 171/198/185 122/146/129 128/149/127 178/199/186
f 178/199/186 128/144/127 124/141/124 173/191/178
f 173/191/178 124/141/124 121/140/123 169/188/175
f 134/162/141 181/200/187 185/203/190 139/163/142
f 139/163/142 185/203/190 190/209/199 143/164/144
f 143/164/144 190/209/199 183/96/198 135/50/146
f 181/200/187 171/198/185 179/196/183 184/201/205
f 184/201/205 179/196/183 175/195/182 188/204/206
f 188/204/206 175/195/182 170/194/181 182/206/193
f 147/176/159 170/194/181 176/192/179 154/177/160
f 154/177/160 176/192/179 172/189/176 149/169/152
f 149/169/152 172/189/176 169/188/175 145/166/149
f 182/206/193 157/178/161 161/181/164 187/207/194
f 187/207/194 161/181/164 166/187/173 191/208/196
f 191/208/196 166/187/173 159/73/172 183/96/198
f 157/178/161 147/176/159 155/174/157 160/179/207
f 160/179/207 155/174/157 151/173/156 164/182/208
f 164/182/208 151/173/156 146/172/155 158/184/167
f 99/119/107 146/172/155 152/170/153 106/120/108
f 106/123/108 152/170/153 148/167/150 101/110/100
f 101/110/100 148/167/150 145/166/149 97/107/97
f 158/184/167 109/125/109 113/128/112 163/185/168
f 163/185/168 113/128/112 118/138/121 167/186/170
f 167/186/170 118/138/121 111/137/120 159/73/172
f 25/34/25 73/84/73 49/61/49 1/1/1
f 3/15/11 15/30/23 39/59/47 26/40/31
f 51/71/59 62/78/67 13/19/13 2/7/7
f 14/137/19 61/73/61 159/73/172 111/137/120
f 37/50/37 14/24/19 111/24/120 135/50/146
f 27/46/35 38/55/43 87/105/95 74/90/79
f 85/96/85 37/50/37 135/50/146 183/96/198
f 75/94/83 86/101/91 63/82/71 50/67/55
f 61/73/61 85/96/85 183/96/198 159/73/172
f 121/140/123 97/107/97 145/166/149 169/188/175
f 98/113/103 123/152/133 133/156/135 110/133/115
f 146/172/155 99/119/107 109/125/109 158/184/167
f 122/146/129 171/198/185 181/200/187 134/162/141
f 170/194/181 147/176/159 157/178/161 182/206/193
