# Blender 5.0.0
# www.blender.org
mtllib Roads.mtl
o BézierCurve
v 29.901726 -6.040562 -29.526663
v 28.014183 -5.523647 -27.125139
v 25.596188 -5.015041 -25.344999
v 22.819368 -4.521728 -24.042063
v 19.855356 -4.050690 -23.072149
v 16.875782 -3.608913 -22.291077
v 14.052276 -3.203381 -21.554667
v 11.556469 -2.841077 -20.718739
v 9.559992 -2.528986 -19.639111
v 8.234476 -2.274090 -18.171604
v 7.751552 -2.083375 -16.172039
v 8.282850 -1.963825 -13.496233
v 10.000000 -1.922423 -10.000000
v 10.814186 -1.935073 -8.314509
v 11.209992 -1.963567 -6.727983
v 11.223069 -1.993723 -5.257213
v 10.889065 -2.011361 -3.918990
v 10.243628 -2.002299 -2.730108
v 9.322408 -1.952355 -1.707358
v 8.161054 -1.847347 -0.867532
v 6.795215 -1.673094 -0.227424
v 5.260541 -1.415415 0.196176
v 3.592680 -1.060127 0.386475
v 1.827281 -0.593049 0.326681
v 0.000000 0.000000 0.000000
l 1 2
l 2 3
l 3 4
l 4 5
l 5 6
l 6 7
l 7 8
l 8 9
l 9 10
l 10 11
l 11 12
l 12 13
l 13 14
l 14 15
l 15 16
l 16 17
l 17 18
l 18 19
l 19 20
l 20 21
l 21 22
l 22 23
l 23 24
l 24 25
