# Blender 5.0.0
# www.blender.org
mtllib Table1.mtl
o Leg
v -0.260000 0.000000 0.260000
v -0.260000 0.000000 0.230000
v -0.240000 0.000000 0.260000
v -0.240000 0.000000 0.230000
v -0.260000 0.750000 0.260000
v -0.260000 0.750000 0.230000
v -0.240000 0.750000 0.260000
v -0.240000 0.750000 0.230000
v 0.240000 0.000000 0.260000
v 0.240000 0.000000 0.230000
v 0.260000 0.000000 0.260000
v 0.260000 0.000000 0.230000
v 0.240000 0.750000 0.260000
v 0.240000 0.750000 0.230000
v 0.260000 0.750000 0.260000
v 0.260000 0.750000 0.230000
v -0.260000 0.000000 -0.230200
v -0.260000 0.000000 -0.260200
v -0.240000 0.000000 -0.230200
v -0.240000 0.000000 -0.260200
v -0.260000 0.750000 -0.230200
v -0.260000 0.750000 -0.260200
v -0.240000 0.750000 -0.230200
v -0.240000 0.750000 -0.260200
v 0.240000 0.000000 -0.230200
v 0.240000 0.000000 -0.260200
v 0.260000 0.000000 -0.230200
v 0.260000 0.000000 -0.260200
v 0.240000 0.750000 -0.230200
v 0.240000 0.750000 -0.260200
v 0.260000 0.750000 -0.230200
v 0.260000 0.750000 -0.260200
vn -0.0000 -1.0000 -0.0000
vn -0.0000 1.0000 -0.0000
vn 1.0000 -0.0000 -0.0000
vn -1.0000 -0.0000 -0.0000
vn -0.0000 -0.0000 1.0000
vn -0.0000 -0.0000 -1.0000
vt 0.625000 0.500000
vt 0.625000 0.750000
vt 0.875000 0.750000
vt 0.875000 0.500000
s 0
usemtl Poliigon_WoodVeneerOak_7760_2K
f 4/1/1 3/2/1 1/3/1 2/4/1
f 8/1/2 6/4/2 5/3/2 7/2/2
f 3/2/3 4/1/3 8/1/3 7/2/3
f 2/4/4 1/3/4 5/3/4 6/4/4
f 1/3/5 3/2/5 7/2/5 5/3/5
f 4/1/6 2/4/6 6/4/6 8/1/6
f 12/1/1 11/2/1 9/3/1 10/4/1
f 16/1/2 14/4/2 13/3/2 15/2/2
f 11/2/3 12/1/3 16/1/3 15/2/3
f 10/4/4 9/3/4 13/3/4 14/4/4
f 9/3/5 11/2/5 15/2/5 13/3/5
f 12/1/6 10/4/6 14/4/6 16/1/6
f 20/1/1 19/2/1 17/3/1 18/4/1
f 24/1/2 22/4/2 21/3/2 23/2/2
f 19/2/3 20/1/3 24/1/3 23/2/3
f 18/4/4 17/3/4 21/3/4 22/4/4
f 17/3/5 19/2/5 23/2/5 21/3/5
f 20/1/6 18/4/6 22/4/6 24/1/6
f 28/1/1 27/2/1 25/3/1 26/4/1
f 32/1/2 30/4/2 29/3/2 31/2/2
f 27/2/3 28/1/3 32/1/3 31/2/3
f 26/4/4 25/3/4 29/3/4 30/4/4
f 25/3/5 27/2/5 31/2/5 29/3/5
f 28/1/6 26/4/6 30/4/6 32/1/6
o Table
v -0.260000 0.750000 0.260000
v 0.260000 0.750000 0.260000
v -0.260000 0.750000 -0.260000
v 0.260000 0.750000 -0.260000
v -0.260000 0.750000 0.260000
v -0.260000 0.750000 0.230000
v -0.240000 0.750000 0.260000
v -0.240000 0.740000 0.260000
v -0.240000 0.750000 0.230000
v -0.240000 0.740000 0.240000
v 0.240000 0.740000 0.260000
v 0.240000 0.750000 0.260000
v 0.240000 0.740000 0.240000
v 0.240000 0.750000 0.230000
v 0.260000 0.750000 0.260000
v -0.240000 0.740000 -0.240000
v 0.260000 0.750000 0.230000
v -0.240000 0.740000 -0.260000
v 0.240000 0.740000 -0.240000
v 0.240000 0.740000 -0.260000
v -0.260000 0.750000 -0.230200
v -0.240000 0.750000 -0.230200
v 0.240000 0.750000 -0.230200
v 0.260000 0.750000 -0.230200
v -0.260000 0.740000 0.230000
v -0.260000 0.740000 -0.230200
v -0.240000 0.740000 0.230000
v -0.240000 0.740000 -0.230200
v 0.260000 0.740000 0.230000
v 0.260000 0.740000 -0.230200
v 0.240000 0.740000 0.230000
v 0.240000 0.740000 -0.230200
v -0.260000 0.750000 -0.260000
v -0.240000 0.750000 -0.260000
v 0.240000 0.750000 -0.260000
v 0.260000 0.750000 -0.260000
vn -0.0000 1.0000 -0.0000
vn -0.0000 -1.0000 -0.0000
vn -1.0000 -0.0000 -0.0000
vn -0.0000 -0.0000 1.0000
vn 1.0000 -0.0000 -0.0000
vn -0.0000 -0.0000 -1.0000
vt 0.000000 0.000000
vt 1.000000 0.000000
vt 1.000000 1.000000
vt 0.000000 1.000000
vt 1.000000 0.057692
vt 0.961538 0.057692
vt 0.961538 0.038462
vt 0.961538 0.000000
vt 0.038462 0.000000
vt 0.038462 0.038462
vt 0.038462 0.057692
vt 0.000000 0.057692
vt 0.000000 0.942692
vt 0.038462 0.942692
vt 0.038462 0.961538
vt 0.038462 1.000000
vt 0.961538 1.000000
vt 0.961538 0.961538
vt 0.961538 0.942692
vt 1.000000 0.942692
vt 0.000000 0.942692
vt 1.000000 0.057692
vt 1.000000 0.942692
vt 0.875000 0.750000
vt 0.875000 0.500000
vt 0.625000 0.500000
vt 0.625000 0.750000
vt 0.625000 0.583333
vt 0.875000 0.583333
vt 0.625000 0.501666
vt 0.875000 0.501666
vt 0.625000 0.668333
vt 0.625000 0.501666
vt 0.625000 0.501666
vt 0.875000 0.668333
vt 0.875000 0.501666
vt 0.875000 0.501666
s 0
usemtl Poliigon_WoodVeneerOak_7760_2K
f 33/5/7 34/6/7 36/7/7 35/8/7
f 61/9/8 63/10/8 45/11/8 43/12/8 40/13/8 42/14/8 59/15/8 57/16/8 58/17/8 60/18/8 48/19/8 50/20/8 52/21/8 51/22/8 64/23/8 62/24/8
f 33/5/9 35/8/9 65/8/9 53/25/9 58/17/9 57/16/9 38/16/9 37/5/9
f 47/6/10 34/6/10 33/5/10 37/5/10 39/13/10 40/13/10 43/12/10 44/12/10
f 68/7/11 36/7/11 34/6/11 47/6/11 49/26/11 61/9/11 62/24/11 56/27/11
f 35/8/12 36/7/12 68/7/12 67/21/12 52/21/12 50/20/12 66/20/12 65/8/12
f 37/28/8 38/29/8 41/30/8 39/31/8
f 42/32/9 40/31/9 39/31/9 41/30/9 59/30/9
f 57/29/10 59/30/10 41/30/10 38/29/10
f 44/28/8 46/29/8 49/30/8 47/31/8
f 43/28/11 45/33/11 63/29/11 46/29/11 44/28/11
f 49/30/10 46/29/10 63/29/10 61/30/10
f 66/34/8 54/31/8 53/28/8 65/35/8
f 48/36/9 60/31/9 54/31/9 66/37/9 50/38/9
f 54/31/12 60/31/12 58/28/12 53/28/12
f 56/31/8 55/28/8 67/35/8 68/34/8
f 55/28/11 64/28/11 51/39/11 52/40/11 67/41/11
f 62/31/12 64/28/12 55/28/12 56/31/12
o Stoppers
v -0.240000 0.450000 0.260000
v 0.240000 0.450000 0.260000
v -0.240000 0.450000 0.250000
v 0.240000 0.450000 0.250000
v -0.240000 0.480000 0.260000
v 0.240000 0.480000 0.260000
v -0.240000 0.480000 0.250000
v 0.240000 0.480000 0.250000
vn -0.0000 -1.0000 -0.0000
vn -0.0000 1.0000 -0.0000
vn 1.0000 -0.0000 -0.0000
vn -1.0000 -0.0000 -0.0000
vn -0.0000 -0.0000 -1.0000
vn -0.0000 -0.0000 1.0000
vt 0.000000 0.000000
vt 0.000000 1.000000
vt 1.000000 1.000000
vt 1.000000 0.000000
s 0
usemtl Poliigon_WoodVeneerOak_7760_2K
f 69/42/13 71/43/13 72/44/13 70/45/13
f 73/42/14 74/45/14 76/44/14 75/43/14
f 70/45/15 72/44/15 76/44/15 74/45/15
f 71/43/16 69/42/16 73/42/16 75/43/16
f 72/44/17 71/43/17 75/43/17 76/44/17
f 69/42/18 70/45/18 74/45/18 73/42/18
o Stoppers.001
v 0.260000 0.450000 0.240000
v 0.260000 0.450000 -0.240000
v 0.250000 0.450000 0.240000
v 0.250000 0.450000 -0.240000
v 0.260000 0.480000 0.240000
v 0.260000 0.480000 -0.240000
v 0.250000 0.480000 0.240000
v 0.250000 0.480000 -0.240000
v -0.260000 0.450000 0.240000
v -0.260000 0.450000 -0.240000
v -0.250000 0.450000 0.240000
v -0.250000 0.450000 -0.240000
v -0.260000 0.480000 0.240000
v -0.260000 0.480000 -0.240000
v -0.250000 0.480000 0.240000
v -0.250000 0.480000 -0.240000
vn -0.0000 -1.0000 -0.0000
vn -0.0000 1.0000 -0.0000
vn -0.0000 -0.0000 -1.0000
vn -0.0000 -0.0000 1.0000
vn -1.0000 -0.0000 -0.0000
vn 1.0000 -0.0000 -0.0000
vt 0.000000 0.000000
vt 0.000000 1.000000
vt 1.000000 1.000000
vt 1.000000 0.000000
s 0
usemtl Poliigon_WoodVeneerOak_7760_2K
f 77/46/19 79/47/19 80/48/19 78/49/19
f 81/46/20 82/49/20 84/48/20 83/47/20
f 78/49/21 80/48/21 84/48/21 82/49/21
f 79/47/22 77/46/22 81/46/22 83/47/22
f 80/48/23 79/47/23 83/47/23 84/48/23
f 77/46/24 78/49/24 82/49/24 81/46/24
f 85/46/19 86/49/19 88/48/19 87/47/19
f 89/46/20 91/47/20 92/48/20 90/49/20
f 86/49/21 90/49/21 92/48/21 88/48/21
f 87/47/22 91/47/22 89/46/22 85/46/22
f 88/48/24 92/48/24 91/47/24 87/47/24
f 85/46/23 89/46/23 90/49/23 86/49/23
o Table.001
v -0.240000 0.450000 0.260000
v 0.240000 0.450000 0.230000
v 0.240000 0.450000 -0.230000
v -0.240000 0.450000 0.230000
v 0.240000 0.450000 0.260000
v 0.260000 0.450000 0.230000
v 0.260000 0.450000 -0.230000
v -0.260000 0.450000 0.230000
v -0.260000 0.450000 -0.230000
v 0.240000 0.450000 -0.260000
v -0.240000 0.450000 -0.230000
v -0.240000 0.450000 -0.260000
v -0.260000 0.440000 0.230000
v -0.260000 0.440000 -0.230000
v 0.240000 0.440000 -0.230000
v 0.240000 0.440000 -0.260000
v -0.240000 0.440000 -0.230000
v -0.240000 0.440000 0.230000
v -0.240000 0.440000 -0.260000
v -0.240000 0.440000 0.260000
v 0.240000 0.440000 0.230000
v 0.240000 0.440000 0.260000
v 0.260000 0.440000 0.230000
v 0.260000 0.440000 -0.230000
vn -0.0000 1.0000 -0.0000
vn -0.0000 -1.0000 -0.0000
vn -1.0000 -0.0000 -0.0000
vn -0.0000 -0.0000 1.0000
vn 1.0000 -0.0000 -0.0000
vn -0.0000 -0.0000 -1.0000
vt 0.000000 0.961538
vt 0.000000 0.038462
vt 0.038462 0.038462
vt 0.038462 0.000000
vt 0.961538 0.000000
vt 0.961538 0.038462
vt 1.000000 0.038462
vt 1.000000 0.961538
vt 0.961538 0.961538
vt 0.961538 1.000000
vt 0.038462 1.000000
vt 0.038462 0.961538
vt 0.038462 0.000000
vt 0.000000 0.038462
vt 0.038462 1.000000
vt 1.000000 0.038462
vt 0.625000 0.750000
vt 0.625000 0.500000
vt 0.875000 0.500000
vt 0.875000 0.750000
s 0
usemtl Poliigon_WoodVeneerOak_7760_2K
f 101/50/25 100/51/25 96/52/25 93/53/25 97/54/25 94/55/25 98/56/25 99/57/25 95/58/25 102/59/25 104/60/25 103/61/25
f 114/54/26 112/62/26 110/52/26 105/63/26 106/50/26 109/61/26 111/64/26 108/59/26 107/58/26 116/57/26 115/65/26 113/55/26
f 106/50/27 105/63/27 100/51/27 101/50/27
f 97/54/28 93/53/28 112/62/28 114/54/28
f 99/57/29 98/56/29 115/65/29 116/57/29
f 108/59/30 111/64/30 104/60/30 102/59/30
f 93/66/27 96/67/27 110/67/27 112/66/27
f 110/67/28 96/67/28 100/68/28 105/68/28
f 113/68/29 94/68/29 97/69/29 114/69/29
f 98/67/28 94/68/28 113/68/28 115/67/28
f 103/66/27 104/67/27 111/67/27 109/66/27
f 101/69/30 103/66/30 109/66/30 106/69/30
f 102/68/29 95/69/29 107/69/29 108/68/29
f 95/69/30 99/66/30 116/66/30 107/69/30
o Stoppers.002
v -0.240000 0.010000 0.260000
v 0.240000 0.010000 0.260000
v -0.240000 0.010000 0.250000
v 0.240000 0.010000 0.250000
v -0.240000 0.010000 -0.260000
v 0.240000 0.010000 -0.260000
v -0.240000 0.010000 -0.250000
v 0.240000 0.010000 -0.250000
v 0.260000 0.010000 0.240000
v 0.260000 0.010000 -0.240000
v 0.250000 0.010000 0.240000
v 0.250000 0.010000 -0.240000
v -0.260000 0.010000 0.240000
v -0.260000 0.010000 -0.240000
v -0.250000 0.010000 0.240000
v -0.250000 0.010000 -0.240000
v -0.240000 0.010000 0.260000
v 0.240000 0.010000 0.240000
v 0.240000 0.010000 -0.240000
v -0.240000 0.010000 0.240000
v 0.240000 0.010000 0.260000
v 0.260000 0.010000 0.240000
v 0.260000 0.010000 -0.240000
v -0.260000 0.010000 0.240000
v -0.260000 0.010000 -0.240000
v 0.240000 0.010000 -0.260000
v -0.240000 0.010000 -0.240000
v -0.240000 0.010000 -0.260000
v -0.260000 0.000000 0.240000
v -0.260000 0.000000 -0.240000
v 0.240000 0.000000 -0.240000
v 0.240000 0.000000 -0.260000
v -0.240000 0.000000 -0.240000
v -0.240000 0.000000 0.240000
v -0.240000 0.000000 -0.260000
v -0.240000 0.000000 0.260000
v 0.240000 0.000000 0.240000
v 0.240000 0.000000 0.260000
v 0.260000 0.000000 0.240000
v 0.260000 0.000000 -0.240000
vn -0.0000 -1.0000 -0.0000
vn -0.0000 1.0000 -0.0000
vn -1.0000 -0.0000 -0.0000
vn -0.0000 -0.0000 1.0000
vn 1.0000 -0.0000 -0.0000
vn -0.0000 -0.0000 -1.0000
vt 0.000000 0.000000
vt 0.000000 1.000000
vt 1.000000 1.000000
vt 1.000000 0.000000
vt 0.000000 0.961538
vt 0.000000 0.038462
vt 0.038462 0.038462
vt 0.038462 0.000000
vt 0.961538 0.000000
vt 0.961538 0.038462
vt 1.000000 0.038462
vt 1.000000 0.961538
vt 0.961538 0.961538
vt 0.961538 1.000000
vt 0.038462 1.000000
vt 0.038462 0.961538
vt 0.038462 0.000000
vt 0.000000 0.038462
vt 0.038462 1.000000
vt 1.000000 0.038462
vt 0.625000 0.750000
vt 0.625000 0.500000
vt 0.875000 0.500000
vt 0.875000 0.750000
s 0
usemtl Poliigon_WoodVeneerOak_7760_2K
f 117/70/31 119/71/31 120/72/31 118/73/31
f 121/70/31 122/73/31 124/72/31 123/71/31
f 125/70/31 127/71/31 128/72/31 126/73/31
f 129/70/31 130/73/31 132/72/31 131/71/31
f 141/74/32 140/75/32 136/76/32 133/77/32 137/78/32 134/79/32 138/80/32 139/81/32 135/82/32 142/83/32 144/84/32 143/85/32
f 154/78/31 152/86/31 150/76/31 145/87/31 146/74/31 149/85/31 151/88/31 148/83/31 147/82/31 156/81/31 155/89/31 153/79/31
f 146/74/33 145/87/33 140/75/33 141/74/33
f 137/78/34 133/77/34 152/86/34 154/78/34
f 139/81/35 138/80/35 155/89/35 156/81/35
f 148/83/36 151/88/36 144/84/36 142/83/36
f 133/90/33 136/91/33 150/91/33 152/90/33
f 150/91/34 136/91/34 140/92/34 145/92/34
f 153/92/35 134/92/35 137/93/35 154/93/35
f 138/91/34 134/92/34 153/92/34 155/91/34
f 143/90/33 144/91/33 151/91/33 149/90/33
f 141/93/36 143/90/36 149/90/36 146/93/36
f 142/92/35 135/93/35 147/93/35 148/92/35
f 135/93/36 139/90/36 156/90/36 147/93/36
o Cube
v -0.211000 -0.041000 0.211000
v -0.211000 0.001000 0.211000
v -0.211000 -0.041000 0.169000
v -0.211000 0.001000 0.169000
v -0.169000 -0.041000 0.211000
v -0.169000 0.001000 0.211000
v -0.169000 -0.041000 0.169000
v -0.169000 0.001000 0.169000
v 0.167000 -0.041000 0.211000
v 0.167000 0.001000 0.211000
v 0.167000 -0.041000 0.169000
v 0.167000 0.001000 0.169000
v 0.209000 -0.041000 0.211000
v 0.209000 0.001000 0.211000
v 0.209000 -0.041000 0.169000
v 0.209000 0.001000 0.169000
v -0.211000 -0.041000 -0.167000
v -0.211000 0.001000 -0.167000
v -0.211000 -0.041000 -0.209000
v -0.211000 0.001000 -0.209000
v -0.169000 -0.041000 -0.167000
v -0.169000 0.001000 -0.167000
v -0.169000 -0.041000 -0.209000
v -0.169000 0.001000 -0.209000
v 0.167000 -0.041000 -0.167000
v 0.167000 0.001000 -0.167000
v 0.167000 -0.041000 -0.209000
v 0.167000 0.001000 -0.209000
v 0.209000 -0.041000 -0.167000
v 0.209000 0.001000 -0.167000
v 0.209000 -0.041000 -0.209000
v 0.209000 0.001000 -0.209000
vn -1.0000 -0.0000 -0.0000
vn -0.0000 -0.0000 -1.0000
vn 1.0000 -0.0000 -0.0000
vn -0.0000 -0.0000 1.0000
vn -0.0000 -1.0000 -0.0000
vn -0.0000 1.0000 -0.0000
vt 0.375000 0.000000
vt 0.625000 0.000000
vt 0.625000 0.250000
vt 0.375000 0.250000
vt 0.625000 0.500000
vt 0.375000 0.500000
vt 0.625000 0.750000
vt 0.375000 0.750000
vt 0.625000 1.000000
vt 0.375000 1.000000
vt 0.125000 0.500000
vt 0.125000 0.750000
vt 0.875000 0.500000
vt 0.875000 0.750000
s 0
f 157/94/37 158/95/37 160/96/37 159/97/37
f 159/97/38 160/96/38 164/98/38 163/99/38
f 163/99/39 164/98/39 162/100/39 161/101/39
f 161/101/40 162/100/40 158/102/40 157/103/40
f 159/104/41 163/99/41 161/101/41 157/105/41
f 164/98/42 160/106/42 158/107/42 162/100/42
f 165/94/37 166/95/37 168/96/37 167/97/37
f 167/97/38 168/96/38 172/98/38 171/99/38
f 171/99/39 172/98/39 170/100/39 169/101/39
f 169/101/40 170/100/40 166/102/40 165/103/40
f 167/104/41 171/99/41 169/101/41 165/105/41
f 172/98/42 168/106/42 166/107/42 170/100/42
f 173/94/37 174/95/37 176/96/37 175/97/37
f 175/97/38 176/96/38 180/98/38 179/99/38
f 179/99/39 180/98/39 178/100/39 177/101/39
f 177/101/40 178/100/40 174/102/40 173/103/40
f 175/104/41 179/99/41 177/101/41 173/105/41
f 180/98/42 176/106/42 174/107/42 178/100/42
f 181/94/37 182/95/37 184/96/37 183/97/37
f 183/97/38 184/96/38 188/98/38 187/99/38
f 187/99/39 188/98/39 186/100/39 185/101/39
f 185/101/40 186/100/40 182/102/40 181/103/40
f 183/104/41 187/99/41 185/101/41 181/105/41
f 188/98/42 184/106/42 182/107/42 186/100/42
